<?xml version="1.0" encoding="UTF-8"?><svg xmlns="http://www.w3.org/2000/svg" xmlns:xlink="http://www.w3.org/1999/xlink" fill-opacity="1" color-rendering="auto" color-interpolation="auto" stroke="black" text-rendering="auto" stroke-linecap="square" width="1074" stroke-miterlimit="10" stroke-opacity="1" shape-rendering="auto" fill="black" stroke-dasharray="none" font-weight="normal" stroke-width="1" height="795" font-family="'Dialog'" font-style="normal" stroke-linejoin="miter" font-size="12" stroke-dashoffset="0" image-rendering="auto">
  <!--Generated by ySVG 2.5-->
  <defs id="genericDefs"/>
  <g>
    <defs id="defs1">
      <clipPath clipPathUnits="userSpaceOnUse" id="clipPath1">
        <path d="M0 0 L1074 0 L1074 795 L0 795 L0 0 Z"/>
      </clipPath>
      <clipPath clipPathUnits="userSpaceOnUse" id="clipPath2">
        <path d="M59 -585 L1133 -585 L1133 210 L59 210 L59 -585 Z"/>
      </clipPath>
    </defs>
    <g fill="white" text-rendering="optimizeQuality" shape-rendering="geometricPrecision" transform="translate(-59,585)" stroke="white">
      <rect x="59" width="1074" height="795" y="-585" clip-path="url(#clipPath2)" stroke="none"/>
    </g>
    <g text-rendering="optimizeQuality" stroke-miterlimit="1.45" shape-rendering="geometricPrecision" transform="matrix(1,0,0,1,-59,585)" stroke-linecap="butt">
      <ellipse rx="40" fill="none" ry="15" clip-path="url(#clipPath2)" cx="114.1051" cy="-195.407"/>
      <text x="99.4479" xml:space="preserve" y="-191.2527" font-family="sans-serif" clip-path="url(#clipPath2)" stroke="none">Start</text>
    </g>
    <g text-rendering="optimizeQuality" stroke-miterlimit="1.45" shape-rendering="geometricPrecision" transform="matrix(1,0,0,1,-59,585)" stroke-linecap="butt">
      <path fill="none" d="M116.0851 -359.75 L228.5071 -359.75 L213.4621 -300.75 L101.0401 -300.75 Z" clip-path="url(#clipPath2)"/>
      <text x="134.3459" xml:space="preserve" y="-326.0957" font-family="sans-serif" clip-path="url(#clipPath2)" stroke="none">user input</text>
    </g>
    <g text-rendering="optimizeQuality" stroke-miterlimit="1.45" shape-rendering="geometricPrecision" transform="matrix(1,0,0,1,-59,585)" stroke-linecap="butt">
      <path fill="none" d="M125.045 -90.064 L228.5071 -90.064 L213.4621 -31.064 L110 -31.064 Z" clip-path="url(#clipPath2)"/>
      <text x="155.61" xml:space="preserve" y="-63.394" font-family="sans-serif" clip-path="url(#clipPath2)" stroke="none">read</text>
      <text x="144.6647" xml:space="preserve" y="-49.4253" font-family="sans-serif" clip-path="url(#clipPath2)" stroke="none">weather</text>
    </g>
    <g text-rendering="optimizeQuality" stroke-miterlimit="1.45" shape-rendering="geometricPrecision" transform="matrix(1,0,0,1,-59,585)" stroke-linecap="butt">
      <rect x="1037.8309" y="-215.407" clip-path="url(#clipPath2)" fill="none" width="80" rx="20" ry="20" height="40"/>
      <text x="1066.4286" xml:space="preserve" y="-191.2527" font-family="sans-serif" clip-path="url(#clipPath2)" stroke="none">End</text>
    </g>
    <g text-rendering="optimizeQuality" stroke-miterlimit="1.45" shape-rendering="geometricPrecision" transform="matrix(1,0,0,1,-59,585)" stroke-linecap="butt">
      <path fill="none" d="M316.1927 -90.064 L429.6927 -90.064 L444.4427 -60.564 L429.6927 -31.064 L316.1927 -31.064 L301.4427 -60.564 Z" clip-path="url(#clipPath2)"/>
      <text x="349.3324" xml:space="preserve" y="-70.3784" font-family="sans-serif" clip-path="url(#clipPath2)" stroke="none">prepare</text>
      <text x="319.3383" xml:space="preserve" y="-56.4097" font-family="sans-serif" clip-path="url(#clipPath2)" stroke="none">'typical' szenarios</text>
      <text x="369.7582" xml:space="preserve" y="-42.4409" font-family="sans-serif" clip-path="url(#clipPath2)" stroke="none">?</text>
    </g>
    <g text-rendering="optimizeQuality" stroke-miterlimit="1.45" shape-rendering="geometricPrecision" transform="matrix(1,0,0,1,-59,585)" stroke-linecap="butt">
      <path fill="none" d="M305.6185 -10.6355 L440.267 -10.6355 L440.267 82.3645 L305.6185 82.3645 Z" clip-path="url(#clipPath2)"/>
      <text x="335.9818" xml:space="preserve" y="40.0188" font-family="sans-serif" clip-path="url(#clipPath2)" stroke="none">crop models</text>
    </g>
    <g text-rendering="optimizeQuality" stroke-miterlimit="1.45" shape-rendering="geometricPrecision" transform="matrix(1,0,0,1,-59,585)" stroke-linecap="butt">
      <path fill="none" d="M301.4427 -460.0495 L436.0913 -460.0495 L436.0913 -367.0495 L301.4427 -367.0495 Z" clip-path="url(#clipPath2)"/>
      <text x="312.6782" xml:space="preserve" y="-409.3952" font-family="sans-serif" clip-path="url(#clipPath2)" stroke="none">herd requirements</text>
    </g>
    <g text-rendering="optimizeQuality" stroke-miterlimit="1.45" shape-rendering="geometricPrecision" transform="matrix(1,0,0,1,-59,585)" stroke-linecap="butt">
      <path fill="none" d="M301.4427 -350.3233 L436.0913 -350.3233 L436.0913 -257.3233 L301.4427 -257.3233 Z" clip-path="url(#clipPath2)"/>
      <text x="326.2543" xml:space="preserve" y="-299.669" font-family="sans-serif" clip-path="url(#clipPath2)" stroke="none">herd grouping</text>
    </g>
    <g text-rendering="optimizeQuality" stroke-miterlimit="1.45" shape-rendering="geometricPrecision" transform="matrix(1,0,0,1,-59,585)" stroke-linecap="butt">
      <path fill="none" d="M301.4427 -569.7757 L436.0913 -569.7757 L436.0913 -476.7757 L301.4427 -476.7757 Z" clip-path="url(#clipPath2)"/>
      <text x="325.7299" xml:space="preserve" y="-519.1214" font-family="sans-serif" clip-path="url(#clipPath2)" stroke="none">herd structure</text>
    </g>
    <g text-rendering="optimizeQuality" stroke-miterlimit="1.45" shape-rendering="geometricPrecision" transform="matrix(1,0,0,1,-59,585)" stroke-linecap="butt">
      <path fill="none" d="M680.9714 -241.907 L815.6199 -241.907 L815.6199 -148.907 L680.9714 -148.907 Z" clip-path="url(#clipPath2)"/>
      <text x="716.1863" xml:space="preserve" y="-191.2527" font-family="sans-serif" clip-path="url(#clipPath2)" stroke="none">diet model</text>
    </g>
    <g text-rendering="optimizeQuality" stroke-miterlimit="1.45" shape-rendering="geometricPrecision" transform="matrix(1,0,0,1,-59,585)" stroke-linecap="butt">
      <path fill="none" d="M469.862 -80.564 L594.3105 -80.564 L584.1105 -40.564 L459.662 -40.564 Z" clip-path="url(#clipPath2)"/>
      <text x="507.2226" xml:space="preserve" y="-56.4097" font-family="sans-serif" clip-path="url(#clipPath2)" stroke="none">supply</text>
    </g>
    <g text-rendering="optimizeQuality" stroke-miterlimit="1.45" shape-rendering="geometricPrecision" transform="matrix(1,0,0,1,-59,585)" stroke-linecap="butt">
      <path fill="none" d="M301.4427 -223.307 C305.4822 -241.907 432.0518 -241.907 436.0913 -223.307 L436.0913 -167.507 C432.0518 -148.907 305.4822 -148.907 301.4427 -167.507 Z" clip-path="url(#clipPath2)"/>
      <path fill="none" d="M436.0913 -223.307 C432.0518 -204.707 305.4822 -204.707 301.4427 -223.307" clip-path="url(#clipPath2)"/>
      <text x="330.0453" xml:space="preserve" y="-191.2527" font-family="sans-serif" clip-path="url(#clipPath2)" stroke="none">supplements</text>
    </g>
    <g text-rendering="optimizeQuality" stroke-miterlimit="1.45" shape-rendering="geometricPrecision" transform="matrix(1,0,0,1,-59,585)" stroke-linecap="butt">
      <path fill="none" d="M469.862 -281.907 L594.3105 -281.907 L584.1105 -241.907 L459.662 -241.907 Z" clip-path="url(#clipPath2)"/>
      <text x="502.3534" xml:space="preserve" y="-257.7527" font-family="sans-serif" clip-path="url(#clipPath2)" stroke="none">demand</text>
    </g>
    <g text-rendering="optimizeQuality" stroke-miterlimit="1.45" shape-rendering="geometricPrecision" transform="matrix(1,0,0,1,-59,585)" stroke-linecap="butt">
      <path fill="none" d="M305.6185 101.7791 L440.267 101.7791 L440.267 194.7791 L305.6185 194.7791 Z" clip-path="url(#clipPath2)"/>
      <text x="315.1927" xml:space="preserve" y="145.449" font-family="sans-serif" clip-path="url(#clipPath2)" stroke="none">soil water&amp;nutrient</text>
      <text x="354.2601" xml:space="preserve" y="159.4177" font-family="sans-serif" clip-path="url(#clipPath2)" stroke="none">model</text>
    </g>
    <g text-rendering="optimizeQuality" stroke-miterlimit="1.45" shape-rendering="geometricPrecision" transform="matrix(1,0,0,1,-59,585)" stroke-linecap="butt">
      <path fill="none" d="M930.2604 -241.907 L1007.8309 -195.407 L930.2604 -148.907 L852.6899 -195.407 Z" clip-path="url(#clipPath2)"/>
      <text x="889.6022" xml:space="preserve" y="-205.2214" font-family="sans-serif" clip-path="url(#clipPath2)" stroke="none">evaluate risk </text>
      <text x="892.8483" xml:space="preserve" y="-191.2527" font-family="sans-serif" clip-path="url(#clipPath2)" stroke="none">of shortages</text>
      <text x="927.0759" xml:space="preserve" y="-177.2839" font-family="sans-serif" clip-path="url(#clipPath2)" stroke="none">?</text>
    </g>
    <g text-rendering="optimizeQuality" stroke-miterlimit="1.45" shape-rendering="geometricPrecision" transform="matrix(1,0,0,1,-59,585)" stroke-linecap="butt">
      <path fill="none" d="M930.2604 -569.7757 L1007.8309 -523.2757 L930.2604 -476.7757 L852.6899 -523.2757 Z" clip-path="url(#clipPath2)"/>
      <text x="911.8268" xml:space="preserve" y="-533.0901" font-family="sans-serif" clip-path="url(#clipPath2)" stroke="none">adjust</text>
      <text x="889.9509" xml:space="preserve" y="-519.1214" font-family="sans-serif" clip-path="url(#clipPath2)" stroke="none">herd demand</text>
      <text x="927.0759" xml:space="preserve" y="-505.1526" font-family="sans-serif" clip-path="url(#clipPath2)" stroke="none">?</text>
    </g>
    <g text-rendering="optimizeQuality" stroke-miterlimit="1.45" shape-rendering="geometricPrecision" transform="matrix(1,0,0,1,-59,585)" stroke-linecap="butt">
      <path fill="none" d="M930.2604 -10.6355 L1007.8309 35.8645 L930.2604 82.3645 L852.6899 35.8645 Z" clip-path="url(#clipPath2)"/>
      <text x="911.8268" xml:space="preserve" y="26.05" font-family="sans-serif" clip-path="url(#clipPath2)" stroke="none">adjust</text>
      <text x="895.2858" xml:space="preserve" y="40.0188" font-family="sans-serif" clip-path="url(#clipPath2)" stroke="none">feed supply</text>
      <text x="927.0759" xml:space="preserve" y="53.9875" font-family="sans-serif" clip-path="url(#clipPath2)" stroke="none">?</text>
    </g>
    <g text-rendering="optimizeQuality" stroke-miterlimit="1.45" shape-rendering="geometricPrecision" transform="matrix(1,0,0,1,-59,585)" stroke-linecap="butt">
      <path fill="none" d="M119.6841 -210.2542 L150.8744 -293.2603" clip-path="url(#clipPath2)"/>
    </g>
    <g text-rendering="optimizeQuality" stroke-miterlimit="1.45" shape-rendering="geometricPrecision" transform="matrix(1,0,0,1,-59,585)" stroke-linecap="butt">
      <path d="M153.6884 -300.7491 L144.7869 -291.2747 L150.5227 -292.3242 L154.1479 -287.7572 Z" clip-path="url(#clipPath2)" stroke="none"/>
      <path fill="none" d="M120.1773 -180.5598 L154.1598 -97.4695" clip-path="url(#clipPath2)"/>
      <path d="M157.1882 -90.0649 L157.2735 -103.0646 L153.7813 -98.3951 L148.0177 -99.2791 Z" clip-path="url(#clipPath2)" stroke="none"/>
      <path fill="none" d="M221.0152 -60.564 L293.4035 -60.564" clip-path="url(#clipPath2)"/>
      <path d="M301.4035 -60.564 L289.4035 -65.564 L292.4035 -60.564 L289.4035 -55.564 Z" clip-path="url(#clipPath2)" stroke="none"/>
      <path fill="none" d="M372.9427 -31.0422 L372.9427 -18.6239" clip-path="url(#clipPath2)"/>
      <path d="M372.9427 -10.6239 L377.9427 -22.6239 L372.9427 -19.6239 L367.9427 -22.6239 Z" clip-path="url(#clipPath2)" stroke="none"/>
      <path fill="none" d="M368.767 -367.0712 L368.767 -358.3019" clip-path="url(#clipPath2)"/>
      <path d="M368.767 -350.3019 L373.767 -362.3019 L368.767 -359.3019 L363.767 -362.3019 Z" clip-path="url(#clipPath2)" stroke="none"/>
      <path fill="none" d="M195.9254 -359.7269 L313.817 -471.28" clip-path="url(#clipPath2)"/>
      <path d="M319.6279 -476.7785 L307.4749 -472.1626 L313.0906 -470.5927 L314.3481 -464.8989 Z" clip-path="url(#clipPath2)" stroke="none"/>
      <path fill="none" d="M368.767 -476.7974 L368.767 -468.0281" clip-path="url(#clipPath2)"/>
      <path d="M368.767 -460.0281 L373.767 -472.0281 L368.767 -469.0281 L363.767 -472.0281 Z" clip-path="url(#clipPath2)" stroke="none"/>
      <path fill="none" d="M440.2992 -6.2994 L488.2479 -36.3144" clip-path="url(#clipPath2)"/>
      <path d="M495.0289 -40.5592 L482.2044 -38.4302 L487.4002 -35.7838 L487.5104 -29.9539 Z" clip-path="url(#clipPath2)" stroke="none"/>
      <path fill="none" d="M559.8099 -80.5633 L674.1179 -150.2108" clip-path="url(#clipPath2)"/>
      <path d="M680.9497 -154.3733 L668.1005 -152.3993 L673.264 -149.6904 L673.3036 -143.8596 Z" clip-path="url(#clipPath2)" stroke="none"/>
      <path fill="none" d="M209.4221 -300.7366 L307.4352 -235.9484" clip-path="url(#clipPath2)"/>
      <path d="M314.1089 -231.5369 L306.8554 -242.3252 L306.601 -236.4998 L301.3411 -233.983 Z" clip-path="url(#clipPath2)" stroke="none"/>
      <path fill="none" d="M436.0833 -195.407 L672.952 -195.407" clip-path="url(#clipPath2)"/>
      <path d="M680.952 -195.407 L668.952 -200.407 L671.952 -195.407 L668.952 -190.407 Z" clip-path="url(#clipPath2)" stroke="none"/>
      <path fill="none" d="M436.0952 -285.9864 L460.9816 -279.3933" clip-path="url(#clipPath2)"/>
      <path d="M468.7148 -277.3446 L458.3954 -285.2509 L460.0149 -279.6494 L455.8345 -275.5844 Z" clip-path="url(#clipPath2)" stroke="none"/>
      <path fill="none" d="M584.772 -244.5433 L673.2844 -217.9467" clip-path="url(#clipPath2)"/>
      <path d="M680.9459 -215.6445 L670.8924 -223.8863 L672.3267 -218.2345 L668.0146 -214.3093 Z" clip-path="url(#clipPath2)" stroke="none"/>
      <path fill="none" d="M399.8354 82.3837 L401.0464 92.0718 L400.8277 93.8216" clip-path="url(#clipPath2)"/>
      <path d="M399.8354 101.7598 L406.2852 90.4727 L400.9517 92.8293 L396.3624 89.2323 Z" clip-path="url(#clipPath2)" stroke="none"/>
      <path fill="none" d="M346.0501 101.7598 L344.8391 92.0718 L345.0578 90.3219" clip-path="url(#clipPath2)"/>
      <path d="M346.0501 82.3837 L339.6003 93.6709 L344.9338 91.3142 L349.5231 94.9112 Z" clip-path="url(#clipPath2)" stroke="none"/>
      <path fill="none" d="M815.6561 -195.407 L844.6538 -195.407" clip-path="url(#clipPath2)"/>
      <path d="M852.6538 -195.407 L840.6538 -200.407 L843.6538 -195.407 L840.6538 -190.407 Z" clip-path="url(#clipPath2)" stroke="none"/>
      <path fill="none" d="M1007.8286 -195.407 L1029.8052 -195.407" clip-path="url(#clipPath2)"/>
      <path d="M1037.8052 -195.407 L1025.8052 -200.407 L1028.8052 -195.407 L1025.8052 -190.407 Z" clip-path="url(#clipPath2)" stroke="none"/>
      <path fill="none" d="M930.2604 -241.8737 L930.2604 -468.799" clip-path="url(#clipPath2)"/>
      <path d="M930.2604 -476.799 L925.2604 -464.799 L930.2604 -467.799 L935.2604 -464.799 Z" clip-path="url(#clipPath2)" stroke="none"/>
      <path fill="none" d="M852.7056 -523.2757 L444.0825 -523.2757" clip-path="url(#clipPath2)"/>
      <path d="M436.0825 -523.2757 L448.0825 -518.2757 L445.0825 -523.2757 L448.0825 -528.2757 Z" clip-path="url(#clipPath2)" stroke="none"/>
      <path fill="none" d="M883.2751 -504.9121 L443.515 -333.0375" clip-path="url(#clipPath2)"/>
      <path d="M436.0638 -330.1254 L449.0606 -329.8367 L444.4464 -333.4016 L445.4204 -339.1506 Z" clip-path="url(#clipPath2)" stroke="none"/>
      <path fill="none" d="M930.2604 -148.9099 L930.2604 -18.6449" clip-path="url(#clipPath2)"/>
      <path d="M930.2604 -10.6449 L935.2604 -22.6449 L930.2604 -19.6449 L925.2604 -22.6449 Z" clip-path="url(#clipPath2)" stroke="none"/>
      <path fill="none" d="M884.3033 16.9354 L443.4695 -164.638" clip-path="url(#clipPath2)"/>
      <path d="M436.0724 -167.6848 L445.2639 -158.4915 L444.3942 -164.2572 L449.0723 -167.7378 Z" clip-path="url(#clipPath2)" stroke="none"/>
      <path fill="none" d="M852.67 35.8645 L448.258 35.8645" clip-path="url(#clipPath2)"/>
      <path d="M440.258 35.8645 L452.258 40.8645 L449.258 35.8645 L452.258 30.8645 Z" clip-path="url(#clipPath2)" stroke="none"/>
    </g>
  </g>
</svg>
