<svg xmlns="http://www.w3.org/2000/svg" xmlns:xlink="http://www.w3.org/1999/xlink" version="1.1" x="0px" y="0px" width="100px" height="100px" viewBox="0 0 100 100" enable-background="new 0 0 100 100" xml:space="preserve">
<g id="Captions">
</g>
<g id="Your_Icon">
	<path fill-rule="evenodd" clip-rule="evenodd" fill="#999" transform="translate(100, 0) scale(-1, 1)" d="M8.458,54.494c-0.164,0-2.12,2.129-2.616,2.615   c-0.328,0.492-0.812,1.312-0.488,2.457c0.488,1.145,1.148,7.193,1.148,8.496c0,1.309-0.164,5.721-0.164,6.049   c0,0.492-0.164,0.814-0.164,1.143c0.164,0.164,0.483,0.656,0.812,0.816c0.333,0.168,0.98,0.656,0.98,0.656s-0.98,1.96-1.144,2.452   c0.98,1.143,3.76,2.123,5.232,2.123c1.312,0,2.124-0.328,2.124-1.303c0-0.82-1.308-2.457-1.955-3.108   c-0.497-0.652-1.144-4.084-1.144-7.027c0-2.781,0.976-6.865,3.099-9.48c3.113,5.721,3.929,10.953,3.761,14.385   c1.308,0.158,1.96,0.979,2.452,2.123c0.651,1.144,1.641,2.124,4.247,2.124c1.309,0,1.801-0.328,1.969-0.488   c0-0.168-0.168-0.656-0.66-0.984c-0.319-0.488-3.269-5.063-3.761-6.048c-0.482-0.975-0.979-3.104-0.979-3.92   c0-0.984,0-3.432,1.144-3.6c1.309-0.324,1.473,1.641,2.133,1.641c0.647-0.168,0.155-1.145,0.98-1.312   c0.812-0.16,1.955-0.488,2.288,0.328c0.328,0.816,0.647,1.309,1.14,0.492c0.492-0.652,0.492-1.309,0.492-1.637   c1.964-1.145,2.611-1.959,2.939-2.451c0.497-0.492,1.805-1.961,1.805-1.961c2.288,0.164,4.74,0.324,5.551,0.324   c0.979,0,3.432-0.16,4.412-0.16c1.144,0,2.288,0.16,3.596,0.16c1.145,0,2.949-0.324,3.597-0.488c0.496-0.164,0.66-0.164,1.144,0   c0.661,0.164,1.145,0.488,1.145,1.145c0.164,0.488,0.66,1.631,0.66,2.451v1.797c-0.168,0.328-0.979,2.129-0.979,2.615   c0,0.492,0.812,0.984,1.144,1.637c0.319,0.816,1.309,2.289,1.145,4.084c0,1.637-0.333,2.287-0.333,3.271   c0,0.488-0.492,0.98,0.333,0.98c0.812,0.163,0.812,0.491,0.976,1.144c0.332,0.492,0.332,0.98,0.979,1.473   c0.661,0.322,2.616,1.143,3.76,1.143c1.145,0.164,1.477,0,1.641-0.492c0.155-0.486-0.164-1.143-0.824-1.631   c-0.816-0.492-1.145-0.492-1.309-1.145c-0.319-0.815-0.815-3.106-0.979-3.759c-0.164-0.816-0.324-3.924-0.324-4.576   c0-0.82,0-2.129,0.16-2.943c0.328-0.656,0.66-2.617,0.66-2.617c0.324,1.801,1.309,5.068,1.628,5.232   c0.492,0.328,0.824,0.652,0.988,1.145c0.155,0.328,0.483,3.104,0.812,4.088c0.169,0.816,0.333,3.919,0.492,4.247   c0.324,0.16,0.984,0.16,1.304,0.488c0.492,0.328,0.989,1.312,1.637,1.799c0.66,0.488,1.641,0.98,2.616,0.98   c1.144,0,1.796-0.164,1.96-0.492c0.164-0.324,0.164-0.652,0-0.975c-0.324-0.328-2.288-1.801-2.616-2.289   c-0.155-0.496-1.3-2.614-1.464-3.271s-1.477-5.393-1.477-6.049s0.333-1.309,0.492-2.123c0-0.82,0.16-3.438,0.16-4.412   c0-0.82,0-1.145,0.824-1.145c0.647,0,1.628,0,2.12-0.168c0.492-0.324,1.312-1.145,1.796-1.797c0.66-1.309,1.144-2.123,1.308-2.611   c0.164-0.656,1.309-3.928,1.805-5.232c0.647-1.145,2.282-4.089,3.099-5.232c0.824-0.98,2.288-2.616,3.112-3.433   c0.812-0.815,1.956-0.984,2.936-1.308c0.98-0.164,2.452,0.164,3.761,0c1.477-0.328,2.784-0.492,3.596-0.82   c0.816-0.324,2.616-1.145,3.432-1.304c0.825-0.164,2.78,0.159,3.113-0.164c0.319-0.328,0.483-0.82,0.812-1.308   c0.332-0.657,0.651-0.816,0.815-0.985C99.667,36.19,100,36.19,100,35.703c0-0.497-0.164-0.656-0.661-1.312   c-0.815-0.98-2.452-2.124-2.771-2.776c-0.496-0.492-0.824-1.144-1.308-1.636c-0.497-0.492-1.805-1.145-2.452-1.796   c-0.496-0.656-3.276-3.433-3.929-3.925c-0.492-0.492-2.452-1.796-2.452-1.796c1.309,0,4.412,0.324,5.557-0.496   c1.308-0.816,1.636-1.468,1.969-2.447c-1.641,0.328-2.785,0.487-3.597,0.487c-0.824,0-3.432-0.328-4.576-0.815   c-1.308-0.657-1.805-0.657-2.133-0.657c-0.319,0-0.647,0.169-1.463,0.492c-0.825,0.329-1.309,0.493-1.309,0.98   c0,0.328,0.164,0.656,0.483,0.815c0.328,0.328,0.497,1.312,0.164,1.473c-0.483,0-0.647-0.16-1.144-0.488   c-0.328-0.328-1.956-1.144-2.94-1.144c-0.819,0-1.302,0.651-1.466,0.979c-0.333,0.324-0.497,0.98,0,1.468   c0.482,0.497,0.974,0.497,1.307,0.656c0.483,0.164,0.979,0.328,0.979,0.816c0,0.328-0.168,0.492-0.979,0.492   c-0.824,0.164-4.42,0.492-6.047,0.492c-4.257,0.159-13.24,0.651-16.354,0.979c-2.936,0.324-6.865,0.816-9.964,1.145   c-3.112,0.323-4.744,0.323-7.688,0.323c-2.78,0-9.808-0.323-11.932-0.815c-3.108-0.328-7.023-0.488-8.828-0.652   c-1.791-0.164-4.74-0.328-6.048,0.492c-1.467,0.816-3.432,2.288-4.243,3.761c-0.82,1.632-0.82,1.468-1.144,3.104   c-0.168,1.632-0.825,4.576-1.144,5.883c-0.333,1.309-0.333,2.612-0.333,4.084c0,1.473-0.328,4.417-0.328,6.049   c0,0.492,0,1.312-0.816,1.472c-0.656,0.328-0.976,0.492-1.308,1.145c-0.328,0.492-0.812,0.492-0.976,1.471   c-0.168,0.98-0.168,1.801,0,2.617c0.164,0.814,0.647,0.979,0.812,2.451c0.164,1.145,0.497,3.104,0.661,4.084   c0.319-1.145,0.98-1.473,0.98-2.287c0-0.98,0.483-3.27,0.812-4.248c0.164-0.984,1.641-1.637,1.641-2.289   c0.164-0.814,0.164-1.471,0-1.959c-0.333-0.492-0.497-0.656-0.333-1.312c0.164-0.816,0.497-4.084,0.497-4.905   c0-0.815,0.483-7.844,0.647-8.664c0.164-0.975,1.144-4.576,1.144-4.576c-0.164,2.944-0.328,7.032-0.328,8.176v5.884   c0.164,1.145-0.155,3.756,0.492,4.905c0.652,1.309,0.98,1.795,0.98,1.795L8.458,54.494z"/>
</g>
</svg>
