<svg xmlns="http://www.w3.org/2000/svg" xmlns:xlink="http://www.w3.org/1999/xlink" version="1.1" width="96" height="96" viewBox="0 0 90.0 100.6">
<path d="M79 74c-7.72 0-14-6.28-14-14s6.28-14 14-14 14 6.28 14 14-6.28 14-14 14zM79 50c-5.516 0-10 4.488-10 10s4.484 10 10 10 10-4.488 10-10-4.484-10-10-10z" fill="#000000"/>
	<path d="M79 66c-3.308 0-6-2.692-6-6s2.692-6 6-6 6 2.692 6 6-2.692 6-6 6zM79 58c-1.1 0-2 0.9-2 2s0.9 2 2 2 2-0.9 2-2-0.9-2-2-2z" fill="#000000"/>
	<path d="M65 62h-28c-0.672 0-1.296-0.336-1.668-0.9l-23.248-35.1h-7.084c-1.1 0-2-0.896-2-2s0.9-2 2-2h8.164c0.672 0 1.296 0.336 1.668 0.896l23.248 35.104h26.92c1.1 0 2 0.9 2 2s-0.9 2-2 2z" fill="#000000"/>
	<path d="M57.184 62c-0.392 0-0.784-0.112-1.128-0.348-0.916-0.624-1.14-1.868-0.52-2.78l17.464-25.488v-3.384h-56c-1.1 0-2-0.896-2-2s0.9-2 2-2h58c1.1 0 2 0.896 2 2v6c0 0.404-0.116 0.796-0.352 1.132l-17.816 26c-0.388 0.564-1.012 0.868-1.648 0.868z" fill="#000000"/>
	<path d="M17 66c-0.556 0-1.084-0.228-1.472-0.648-0.5-0.544-0.66-1.32-0.416-2.016l7.864-22.34c0.368-1.040 1.508-1.592 2.552-1.224 1.048 0.368 1.584 1.508 1.228 2.552l-6.604 18.792 14.364-3.724c1.1-0.284 2.164 0.372 2.436 1.432 0.28 1.068-0.368 2.16-1.428 2.436l-18 4.664c-0.188 0.056-0.356 0.076-0.524 0.076z" fill="#000000"/>
<!-- <text x="0.0" y="112.8" font-size="4.8" font-weight="bold" font-family="Helvetica Neue, Helvetica, Arial-Unicode, Arial, Sans-serif" fill="#000000">Created by iconsmind.com</text><text x="0.0" y="117.6" font-size="4.8" font-weight="bold" font-family="Helvetica Neue, Helvetica, Arial-Unicode, Arial, Sans-serif" fill="#000000">from the Noun Project</text> --></svg>
